<?xml version="1.0" standalone="no"?><!DOCTYPE svg PUBLIC "-//W3C//DTD SVG 1.1//EN" "http://www.w3.org/Graphics/SVG/1.1/DTD/svg11.dtd"><svg t="1646817194673" class="icon" viewBox="0 0 1024 1024" version="1.1" xmlns="http://www.w3.org/2000/svg" p-id="1075" xmlns:xlink="http://www.w3.org/1999/xlink" width="200" height="200"><defs><style type="text/css"></style></defs><path d="M512 85.333333c235.648 0 426.666667 191.018667 426.666667 426.666667s-191.018667 426.666667-426.666667 426.666667S85.333333 747.648 85.333333 512 276.352 85.333333 512 85.333333z m87.424 619.861334a27.648 27.648 0 0 0-2.56 5.717333l-1.152 3.242667c-4.778667 13.312-7.808 19.882667-14.464 27.861333-8.96 11.093333-18.005333 16.896-32.981333 23.04l-15.786667 6.229333c-19.498667 8.533333-32.938667 27.733333-33.706667 48.64a206.08 206.08 0 0 0-0.085333 16.64l1.749333 33.109334a32.256 32.256 0 0 1-0.128 4.821333 362.154667 362.154667 0 0 0 302.805334-146.176c-4.352 0.170667-9.514667 0.853333-15.616 1.792l-31.061334 5.546667-16.042666 2.346666c-4.266667 0.597333-7.68 1.024-11.434667 1.450667-11.264 1.28-21.162667 1.877333-30.890667 1.664-23.509333-0.597333-45.226667-5.888-63.872-17.194667l-5.973333-4.010666a144.469333 144.469333 0 0 1-6.314667-4.906667l-10.496-8.618667a20.906667 20.906667 0 0 0-6.613333-3.84c-1.194667-0.426667-4.010667 0.597333-5.376 2.645334z m16.213333-540.842667l-1.408 3.84c-5.376 13.226667-13.354667 25.6-23.466666 36.352-6.741333 7.168-12.8 11.776-22.784 17.92l-14.805334 8.96a35.114667 35.114667 0 0 0-7.253333 5.546667c-1.450667 1.621333-2.218667 5.290667-1.408 9.514666a28.245333 28.245333 0 0 0 2.261333 6.058667l4.181334 8.192c5.930667 11.264 8.874667 17.92 11.093333 27.562667 1.792 8.32 2.389333 14.890667 2.261333 24.234666l-0.853333 23.04 1.621333 31.104 0.469334 15.573334c0.042667 4.778667 0 9.258667-0.256 13.653333a120.192 120.192 0 0 1-72.106667 104.533333l-11.733333 4.608c-8.96 3.413333-11.946667 5.077333-13.141334 6.528l-0.853333 1.578667-6.570667 17.237333a62.848 62.848 0 0 1-7.594666 13.866667c-16.469333 24.704-48.725333 36.266667-76.629334 27.477333-11.306667-3.328-18.645333-7.68-29.312-16.213333l-10.922666-8.96a43.221333 43.221333 0 0 0-4.010667-2.944c-7.765333-4.693333-18.816-7.381333-32-7.722667a140.672 140.672 0 0 0-15.829333 0.597334l-12.629334 1.450666-38.997333 5.674667c-35.328 4.650667-60.16 4.053333-82.645333-5.376a362.837333 362.837333 0 0 0 285.866666 328.490667l-1.152-20.394667-0.469333-15.573333c-0.042667-4.778667 0-9.258667 0.256-13.653334a120.192 120.192 0 0 1 72.106667-104.533333l11.733333-4.608c8.96-3.413333 11.946667-5.077333 13.141333-6.528l0.853334-1.578667 6.570666-17.237333c2.304-5.589333 4.48-9.557333 7.594667-13.866667 16.469333-24.704 48.725333-36.266667 76.629333-27.477333 11.306667 3.328 18.645333 7.68 29.312 16.213333l10.922667 8.96c1.792 1.408 2.986667 2.304 4.010667 2.944 7.765333 4.693333 18.816 7.381333 32 7.722667 4.778667 0.128 9.941333-0.085333 15.829333-0.597333l12.629333-1.450667 20.864-3.029333 12.16-2.261334c35.157333-6.656 57.813333-8.533333 78.336-1.877333a362.837333 362.837333 0 0 0-223.872-503.552zM512 149.333333a362.752 362.752 0 0 0-359.936 317.824 30.634667 30.634667 0 0 1 8.277333 3.072l3.968 2.56c13.866667 10.410667 32.042667 11.690667 70.784 5.888l24.618667-3.669333c4.266667-0.597333 7.68-1.024 11.434667-1.450667 11.264-1.28 21.162667-1.877333 30.890666-1.664 23.509333 0.597333 45.226667 5.888 63.872 17.194667l5.973334 4.010667c1.962667 1.450667 3.968 2.986667 6.314666 4.906666l10.496 8.618667a20.906667 20.906667 0 0 0 6.613334 3.84c1.194667 0.426667 4.010667-0.597333 5.376-2.645333a27.648 27.648 0 0 0 2.56-5.717334l1.152-3.242666c4.778667-13.312 7.808-19.882667 14.464-27.861334 8.96-11.093333 18.005333-16.896 32.981333-23.04l15.786667-6.229333c19.498667-8.533333 32.938667-27.733333 33.706666-48.64a206.08 206.08 0 0 0 0.085334-16.64l-1.706667-32.981333a133.589333 133.589333 0 0 1-0.170667-11.392l0.725334-18.218667a45.653333 45.653333 0 0 0-0.682667-11.477333 27.136 27.136 0 0 0-2.090667-5.504l-3.754666-7.424c-6.528-12.330667-9.472-18.986667-11.861334-29.909334-4.522667-23.296 0.384-47.018667 16.256-65.194666a88.746667 88.746667 0 0 1 19.114667-15.957334l11.776-7.168c8.96-5.290667 12.501333-7.722667 15.104-10.496 2.730667-2.901333 5.12-5.973333 7.04-9.216A348.288 348.288 0 0 0 512 149.333333z" p-id="1076" fill="#ffffff"></path></svg>